<svg xmlns="http://www.w3.org/2000/svg" viewBox="0 0 64 64"><defs><linearGradient id="a" x1="26.475" x2="26.857" y1="24.527" y2="31.791" gradientUnits="userSpaceOnUse"><stop offset="0" stop-color="#fce94f"/><stop offset="1" stop-color="#fce94f" stop-opacity="0"/></linearGradient><filter id="b" width="1.079" height="2.114" x="-.039" y="-.557"><feGaussianBlur stdDeviation=".842"/></filter></defs><g stroke-width="1.199"><path d="M7.176 34.803S5.618 26.978 6.2 25.94c1.379-2.461 4.655.811 7.4.163 0 0 7.634-4.197 12.116-4.066 4.072.119 7.652 3.136 11.709 3.497 0 0 7.169.417 12.035.976 2.298.264 5.925 1.928 7.69 3.778 1.04 1.09 1.92 3.709 1.011 4.679-16.356-1.213-38.933-2.022-50.984-.162z" fill="url(#a)" stroke="#2e2727"/><path d="M18.072 33.136c0 2.448-2.312 4.432-5.164 4.432s-5.164-1.984-5.164-4.432 2.312-4.432 5.164-4.432 5.164 1.984 5.164 4.432z" fill="#555753" stroke="#fcfeff"/></g><path d="M53.937 32.943c.01 1.658-.948 3.195-2.509 4.027a5.42 5.42 0 0 1-5.049 0c-1.561-.832-2.519-2.368-2.509-4.027-.01-1.658.948-3.195 2.509-4.027a5.42 5.42 0 0 1 5.049 0c1.561.832 2.519 2.368 2.509 4.027z" fill="#555753" stroke="#fcfeff" stroke-width="1.17"/><path d="M57.059 39.724a25.662 1.816 0 1 1-51.324 0 25.662 1.816 0 1 1 51.324 0z" fill="#999" stroke="#ada7a7" stroke-width=".6" filter="url(#b)" opacity=".202"/></svg>